{"title":"Ghost Rider (2007) Extended Cut BRRip 720p x264 Dual Audio [Hind","uid":9940052,"size":1187398442,"categoryP":"video","categoryS":"hd___movies","magnet":"?xt=urn:btih:967bdfa8065d7675da2a701ae04864281c0a6ce4&amp;dn=Ghost+Rider+%282007%29+Extended+Cut+BRRip+720p+x264+Dual+Audio+%5BHind&amp;tr=udp%3A%2F%2Ftracker.openbittorrent.com%3A80&amp;tr=udp%3A%2F%2Fopen.demonii.com%3A1337&amp;tr=udp%3A%2F%2Ftracker.coppersurfer.tk%3A6969&amp;tr=udp%3A%2F%2Fexodus.desync.com%3A6969","seeders":1,"leechers":0,"uploader":"Dj_SaM","files":10,"time":1397226350,"description":"Ghost Rider (2007) Extended Cut BRRip 720p x264 Dual Audio [Hindi-Eng] YsB TeaM SSX\n\nTeaM SSX Presents...\n &lt;a href=&quot;\nhttp://i.imgur.com/EhPvwjp.jpg&quot; rel=&quot;nofollow&quot; target=&quot;_NEW&quot;&gt;\nhttp://i.imgur.com/EhPvwjp.jpg&lt;/a&gt;\n\nInfo:\nGeneral\nUnique ID                                : 174074843175330622658171550068733173738 (0x82F59865D0E236A9BE6CFC80F5D0DFEA)\nComplete name                            : Ghost Rider (2007) Extended Cut BRRip 720p x264 Dual Audio [Hindi-Eng] YsB TeaM SSX.mkv\nFormat                                   : Matroska\nFormat version                           : Version 4 / Version 2\nFile size                                : 1.10 GiB\nDuration                                 : 2h 3mn\nOverall bit rate mode                    : Variable\nOverall bit rate                         : 1 282 Kbps\nMovie name                               : Ghost Rider (2007) Extended Cut BRRip 720p x264 Dual Audio [Hindi-Eng] YsB TeaM SSX\nEncoded date                             : UTC 2014-04-11 11:13:31\nWriting application                      : mkvmerge v6.8.0 ('Theme for Great Cities') 32bit built on Mar  2 2014 21:27:07\nWriting library                          : libebml v1.3.0 + libmatroska v1.4.1\n\nVideo\nID                                       : 1\nFormat                                   : AVC\nFormat/Info                              : Advanced Video Codec\nFormat profile                           : &lt;a class=&quot;__cf_email__&quot; href=&quot;/cdn-cgi/l/email-protection&quot; data-cfemail=&quot;8bc3e2ece3cbc7bfa5ba&quot;&gt;[email&amp;#160;protected]&lt;/a&gt;&lt;script cf-hash='f9e31' type=&quot;text/javascript&quot;&gt;\n/* &lt;![CDATA[ */!function(){try{var t=&quot;currentScript&quot;in document?document.currentScript:function(){for(var t=document.getElementsByTagName(&quot;script&quot;),e=t.length;e--;)if(t[e].getAttribute(&quot;cf-hash&quot;))return t[e]}();if(t&amp;&amp;t.previousSibling){var e,r,n,i,c=t.previousSibling,a=c.getAttribute(&quot;data-cfemail&quot;);if(a){for(e=&quot;&quot;,r=parseInt(a.substr(0,2),16),n=2;a.length-n;n+=2)i=parseInt(a.substr(n,2),16)^r,e+=String.fromCharCode(i);e=document.createTextNode(e),c.parentNode.replaceChild(e,c)}}}catch(u){}}();/* ]]&gt; */&lt;/script&gt;\nFormat settings, CABAC                   : Yes\nFormat settings, ReFrames                : 4 frames\nCodec ID                                 : V_MPEG4/ISO/AVC\nDuration                                 : 2h 3mn\nBit rate mode                            : Variable\nBit rate                                 : 1 024 Kbps\nMaximum bit rate                         : 40.0 Mbps\nWidth                                    : 1 280 pixels\nHeight                                   : 528 pixels\nDisplay aspect ratio                     : 2.40:1\nFrame rate mode                          : Constant\nFrame rate                               : 23.976 fps\nColor space                              : YUV\nChroma subsampling                       : 4:2:0\nBit depth                                : 8 bits\nScan type                                : Progressive\nBits/(Pixel*Frame)                       : 0.063\nStream size                              : 883 MiB (78%)\nTitle                                    : Ghost Rider (2007) Extended Cut BRRip 720p x264 Dual Audio [Hindi-Eng] YsB TeaM SSX\nWriting library                          : x264 core 138 r2358 9e941d1\nDefault                                  : Yes\nForced                                   : No\n\nAudio #1\nID                                       : 2\nFormat                                   : AC-3\nFormat/Info                              : Audio Coding 3\nMode extension                           : CM (complete main)\nFormat settings, Endianness              : Big\nCodec ID                                 : A_AC3\nDuration                                 : 2h 3mn\nBit rate mode                            : Constant\nBit rate                                 : 128 Kbps\nChannel(s)                               : 2 channels\nChannel positions                        : Front: L R\nSampling rate                            : 48.0 KHz\nBit depth                                : 16 bits\nCompression mode                         : Lossy\nStream size                              : 113 MiB (10%)\nTitle                                    : TeaM SSX\nLanguage                                 : Hindi\nDefault                                  : Yes\nForced                                   : No\n\nAudio #2\nID                                       : 3\nFormat                                   : AC-3\nFormat/Info                              : Audio Coding 3\nMode extension                           : CM (complete main)\nFormat settings, Endianness              : Big\nCodec ID                                 : A_AC3\nDuration                                 : 2h 3mn\nBit rate mode                            : Constant\nBit rate                                 : 128 Kbps\nChannel(s)                               : 6 channels\nChannel positions                        : Front: L C R, Side: L R, LFE\nSampling rate                            : 48.0 KHz\nBit depth                                : 16 bits\nCompression mode                         : Lossy\nStream size                              : 113 MiB (10%)\nTitle                                    : TeaM SSX\nLanguage                                 : English\nDefault                                  : No\nForced                                   : No\n\nText\nID                                       : 4\nFormat                                   : UTF-8\nCodec ID                                 : S_TEXT/UTF8\nCodec ID/Info                            : UTF-8 Plain Text\nTitle                                    : TeaM SSX\nLanguage                                 : English\nDefault                                  : No\nForced                                   : No\n\nMenu\n00:00:00.054                             : en:00:00:00.054 / en:00:00:00.054 / en:00:00:00.054 / en:00:00:00.054\n\nScreenShot: &lt;a href=&quot;\nhttp://i.imgur.com/zhpk5UI.jpg&quot; rel=&quot;nofollow&quot; target=&quot;_NEW&quot;&gt;\nhttp://i.imgur.com/zhpk5UI.jpg&lt;/a&gt; &lt;a href=&quot;\nhttp://i.imgur.com/f4ACohZ.jpg&quot; rel=&quot;nofollow&quot; target=&quot;_NEW&quot;&gt;\nhttp://i.imgur.com/f4ACohZ.jpg&lt;/a&gt; &lt;a href=&quot;\nhttp://i.imgur.com/iRvVjlK.jpg&quot; rel=&quot;nofollow&quot; target=&quot;_NEW&quot;&gt;\nhttp://i.imgur.com/iRvVjlK.jpg&lt;/a&gt; &lt;a href=&quot;\nhttp://i.imgur.com/MGHMVfT.jpg&quot; rel=&quot;nofollow&quot; target=&quot;_NEW&quot;&gt;\nhttp://i.imgur.com/MGHMVfT.jpg&lt;/a&gt; &lt;a href=&quot;\nhttp://i.imgur.com/NItlBaD.jpg&quot; rel=&quot;nofollow&quot; target=&quot;_NEW&quot;&gt;\nhttp://i.imgur.com/NItlBaD.jpg&lt;/a&gt;\n\nThanks...\nTeaM GPSoFT, TBI, SnoWDon, Public HD...\nTeaM SSX, Maverick Dude, Hari, Romeo007, HemKumar...","torrent":{"xt":"urn:btih:967bdfa8065d7675da2a701ae04864281c0a6ce4","amp;dn":"Ghost+Rider+%282007%29+Extended+Cut+BRRip+720p+x264+Dual+Audio+%5BHind","amp;tr":["udp%3A%2F%2Ftracker.openbittorrent.com%3A80","udp%3A%2F%2Fopen.demonii.com%3A1337","udp%3A%2F%2Ftracker.coppersurfer.tk%3A6969","udp%3A%2F%2Fexodus.desync.com%3A6969"],"infoHash":"967bdfa8065d7675da2a701ae04864281c0a6ce4","infoHashBuffer":{"type":"Buffer","data":[150,123,223,168,6,93,118,117,218,42,112,26,224,72,100,40,28,10,108,228]},"announce":[],"urlList":[]}}